HIERARCHY
ROOT Hips
{
	OFFSET	0.00	0.00	0.00
	CHANNELS 6 Xposition Yposition Zposition Zrotation Xrotation Yrotation
	JOINT LeftUpLeg
	{
		OFFSET	 0.126116	-0.014019	-0.065224
		CHANNELS 3 Zrotation Xrotation Yrotation
		JOINT LeftLeg
		{
			OFFSET	 0.000000	 0.000000	 0.569914
			CHANNELS 3 Zrotation Xrotation Yrotation
			JOINT LeftFoot
			{
				OFFSET	 0.000000	 0.000000	 0.544423
				CHANNELS 3 Zrotation Xrotation Yrotation
				JOINT LeftToeBase
				{
					OFFSET	 0.000000	 0.000000	 0.207117
					CHANNELS 3 Zrotation Xrotation Yrotation
					End Site
					{
						OFFSET	 0.000000	 0.000000	 0.207117
					}
				}
			}
		}
	}
	JOINT RightUpLeg
	{
		OFFSET	-0.124023	-0.008373	-0.065224
		CHANNELS 3 Zrotation Xrotation Yrotation
		JOINT RightLeg
		{
			OFFSET	 0.000000	 0.000000	 0.570047
			CHANNELS 3 Zrotation Xrotation Yrotation
			JOINT RightFoot
			{
				OFFSET	 0.000000	 0.000000	 0.544354
				CHANNELS 3 Zrotation Xrotation Yrotation
				JOINT RightToeBase
				{
					OFFSET	 0.000000	 0.000000	 0.207540
					CHANNELS 3 Zrotation Xrotation Yrotation
					End Site
					{
						OFFSET	 0.000000	 0.000000	 0.207540
					}
				}
			}
		}
	}
	JOINT Spine
	{
		OFFSET	 0.000184	-0.007763	 0.117403
		CHANNELS 3 Zrotation Xrotation Yrotation
		JOINT Spine1
		{
			OFFSET	 0.000000	 0.000000	 0.137269
			CHANNELS 3 Zrotation Xrotation Yrotation
			JOINT Spine2
			{
				OFFSET	 0.000000	 0.000000	 0.156879
				CHANNELS 3 Zrotation Xrotation Yrotation
				JOINT LeftShoulder
				{
					OFFSET	 0.080501	-0.002496	 0.160144
					CHANNELS 3 Zrotation Xrotation Yrotation
					JOINT LeftArm
					{
						OFFSET	 0.000000	 0.000000	 0.164363
						CHANNELS 3 Zrotation Xrotation Yrotation
						JOINT LeftForeArm
						{
							OFFSET	 0.000000	 0.000000	 0.364576
							CHANNELS 3 Zrotation Xrotation Yrotation
							JOINT LeftHand
							{
								OFFSET	 0.000000	 0.000000	 0.360812
								CHANNELS 3 Zrotation Xrotation Yrotation
								JOINT LeftHandIndex1
								{
									OFFSET	 0.000000	 0.000000	 0.086006
									CHANNELS 3 Zrotation Xrotation Yrotation
									JOINT LeftHandIndex2
									{
										OFFSET	 0.000000	 0.000000	 0.047236
										CHANNELS 3 Zrotation Xrotation Yrotation
										JOINT LeftHandIndex3
										{
											OFFSET	-0.004284	-0.000551	 0.038166
											CHANNELS 3 Zrotation Xrotation Yrotation
											End Site
											{
												OFFSET	-0.004284	-0.000551	 0.038166
											}
										}
									}
								}
							}
						}
					}
				}
				JOINT Neck
				{
					OFFSET	 0.000000	 0.000000	 0.176489
					CHANNELS 3 Zrotation Xrotation Yrotation
					JOINT Head
					{
						OFFSET	 0.000000	-0.001747	 0.077940
						CHANNELS 3 Zrotation Xrotation Yrotation
						End Site
						{
							OFFSET	 0.000000	-0.001747	 0.077940
						}
					}
				}
				JOINT RightShoulder
				{
					OFFSET	-0.080363	 0.000306	 0.159706
					CHANNELS 3 Zrotation Xrotation Yrotation
					JOINT RightArm
					{
						OFFSET	 0.000000	 0.000000	 0.164196
						CHANNELS 3 Zrotation Xrotation Yrotation
						JOINT RightForeArm
						{
							OFFSET	 0.000000	 0.000000	 0.365611
							CHANNELS 3 Zrotation Xrotation Yrotation
							JOINT RightHand
							{
								OFFSET	 0.000000	 0.000000	 0.360648
								CHANNELS 3 Zrotation Xrotation Yrotation
								JOINT RightHandIndex1
								{
									OFFSET	 0.000000	 0.000000	 0.069977
									CHANNELS 3 Zrotation Xrotation Yrotation
									JOINT RightHandIndex2
									{
										OFFSET	 0.000000	 0.000000	 0.052305
										CHANNELS 3 Zrotation Xrotation Yrotation
										JOINT RightHandIndex3
										{
											OFFSET	 0.009002	-0.000782	 0.042196
											CHANNELS 3 Zrotation Xrotation Yrotation
											End Site
											{
												OFFSET	 0.009002	-0.000782	 0.042196
											}
										}
									}
								}
							}
						}
					}
				}
			}
		}
	}
}
MOTION
Frames:    8
Frame Time: 0.03333334
 0.012075	 0.038470	 1.217485	 179.980200	 0.626506	 0.641138	-13.137030	-10.096670	-177.271400	-1.851277	-41.014630	-7.202019	-170.751800	 82.880150	 156.937000	-2.204252	 46.580020	-0.468570	 3.043990	-8.892804	 179.599200	 6.627801	-39.915340	 9.567455	-171.270800	 83.078140	-179.487300	 2.360034	 32.842430	 0.099565	-6.804551	 5.323402	 1.165394	-1.240084	 10.980080	-2.510989	 7.265454	-24.289510	 5.056850	-91.229200	 83.958240	 178.242500	 35.958070	 64.105340	-46.081710	 7.447306	-0.125215	-1.883094	 18.889780	-22.709890	-9.870903	-11.589210	 8.208909	-24.484080	-5.213937	-0.202400	 3.566957	-1.378229	 35.397820	-2.634230	-1.378832	 7.037163	 5.372069	-2.545935	-19.986650	-7.205511	 87.726860	 87.418890	-176.798800	-68.655470	 60.536420	 69.445180	-7.526813	-0.152112	 1.877439	-30.537190	-19.844270	 20.578760	-0.608512	 25.671410	-61.787410	 5.070519	-0.690904	-9.399550	-2.350882	 35.473990	 5.254307
 0.011362	 0.036537	 1.219039	-179.797300	 0.594084	 0.386708	-12.943380	-10.643810	-176.578800	-1.832213	-40.386940	-7.099185	-174.724200	 84.343240	 160.893700	-2.166608	 48.586950	-0.535521	 2.751055	-9.574162	 179.236000	 6.641332	-39.977160	 9.588600	-165.474100	 83.724990	 174.842500	 2.367738	 31.632860	 0.071837	-7.411046	 5.097329	 1.402843	-1.216009	 10.471220	-2.751086	 7.389203	-24.193680	 5.255518	-91.229380	 83.958270	 178.242700	 45.334420	 67.486270	-54.812420	 6.480670	-0.097989	-2.202956	 17.522740	-24.200910	-10.404130	-11.644490	 7.832355	-24.383850	-5.213937	-0.202400	 3.566957	-1.378229	 35.397820	-2.634230	-1.416780	 6.892951	 5.389134	-2.608402	-20.390980	-7.196691	 87.727090	 87.418960	-176.799000	-74.991310	 61.415320	 74.644730	-6.221484	-0.121282	 2.193814	-28.609740	-20.893880	 21.147910	-0.204564	 26.308320	-61.947830	 5.070519	-0.690904	-9.399550	-2.350882	 35.473990	 5.254307
 0.011428	 0.036032	 1.219388	-179.697500	 0.589471	 0.413275	-12.994990	-10.771650	-176.522300	-1.769389	-40.297500	-7.044806	-175.411400	 84.614170	 161.540700	-2.156758	 49.071640	-0.552390	 2.594064	-9.699674	 179.058600	 6.647661	-39.924670	 9.582530	-163.770100	 83.902400	 173.155600	 2.368379	 31.526080	 0.069414	-7.587696	 5.109480	 1.399119	-1.205524	 10.321170	-2.823448	 7.420951	-24.209970	 5.293136	-91.229140	 83.958340	 178.242500	 48.516600	 68.292410	-56.755490	 6.328531	-0.868854	-4.215199	 17.309190	-24.520820	-10.546420	-11.750350	 7.654474	-24.604510	-5.213937	-0.202400	 3.566957	-1.378229	 35.397820	-2.634230	-1.412203	 6.842930	 5.326648	-2.603587	-20.500520	-7.124472	 87.726900	 87.419040	-176.798900	-79.152810	 61.905380	 74.584140	-5.794504	-3.369165	 9.405556	-28.220910	-21.137410	 21.294480	-0.167818	 26.376000	-62.015250	 5.070519	-0.690904	-9.399550	-2.350882	 35.473990	 5.254307
 0.011528	 0.035583	 1.219720	-179.600800	 0.587430	 0.439825	-13.054770	-10.867640	-176.494600	-1.711996	-40.226690	-6.996796	-175.883800	 84.827330	 161.980200	-2.147050	 49.534390	-0.568779	 2.451667	-9.787642	 178.917600	 6.653587	-39.874170	 9.576578	-162.426300	 84.045170	 171.821800	 2.368986	 31.424160	 0.067106	-7.759123	 5.122435	 1.393376	-1.200804	 10.236650	-2.877709	 7.452228	-24.253280	 5.325349	-91.229290	 83.958310	 178.242600	 54.377950	 69.592380	-56.440670	 5.600264	-5.249380	-15.463640	 17.104000	-24.819630	-10.684300	-11.851910	 7.485179	-24.815250	-5.213937	-0.202400	 3.566957	-1.378229	 35.397820	-2.634230	-1.407890	 6.795211	 5.266942	-2.598963	-20.605060	-7.055551	 87.727040	 87.418890	-176.799000	-82.721280	 62.280000	 74.415020	-5.064372	-6.167431	 15.884020	-27.849990	-21.363200	 21.435380	-0.132649	 26.440550	-62.079700	 5.070519	-0.690904	-9.399550	-2.350882	 35.473990	 5.254307
 0.011683	 0.035198	 1.220061	-179.502500	 0.589480	 0.466584	-13.128470	-10.925550	-176.503900	-1.658670	-40.177090	-6.954584	-176.028100	 84.973130	 162.101000	-2.137154	 49.992220	-0.585260	 2.322512	-9.830087	 178.820800	 6.659816	-39.825660	 9.571194	-161.605400	 84.152230	 171.001800	 2.369591	 31.323310	 0.064819	-7.934438	 5.135602	 1.385911	-1.205593	 10.232850	-2.911676	 7.484702	-24.333800	 5.352469	-91.229270	 83.958340	 178.242600	 56.946400	 70.039670	-57.049770	 5.131070	-6.486031	-18.910690	 16.899890	-25.108310	-10.822430	-11.952880	 7.318208	-25.023760	-5.213937	-0.202400	 3.566957	-1.378229	 35.397820	-2.634230	-1.403661	 6.747959	 5.207905	-2.594096	-20.708530	-6.987325	 87.726640	 87.418960	-176.798600	-84.326580	 62.406730	 74.618290	-4.609811	-7.083400	 18.239660	-27.483480	-21.579610	 21.575270	-0.097790	 26.504350	-62.143540	 5.070519	-0.690904	-9.399550	-2.350882	 35.473990	 5.254307
 0.011849	 0.034869	 1.220341	-179.403100	 0.588871	 0.507618	-13.224400	-10.947610	-176.560600	-1.611989	-40.184010	-6.924845	-175.748100	 85.030120	 161.797500	-2.126442	 50.472960	-0.602876	 2.197155	-9.823898	 178.759700	 6.670787	-39.794840	 9.572434	-161.447600	 84.217210	 170.825000	 2.370203	 31.217420	 0.062439	-8.121738	 5.158312	 1.364246	-1.216746	 10.326160	-2.939246	 7.524050	-24.463330	 5.383303	-91.229230	 83.958370	 178.242500	 57.617710	 70.071480	-57.191720	 4.921064	-6.694425	-19.688220	 16.684580	-25.403250	-10.969170	-12.059450	 7.143417	-25.242780	-5.213937	-0.202400	 3.566957	-1.378229	 35.397820	-2.634230	-1.399286	 6.698346	 5.145926	-2.588961	-20.817130	-6.915739	 87.726860	 87.418820	-176.798800	-84.492320	 62.385340	 74.739720	-4.425023	-6.954728	 18.189900	-27.099630	-21.798620	 21.722560	-0.061093	 26.571270	-62.210660	 5.070519	-0.690904	-9.399550	-2.350882	 35.473990	 5.254307
 0.012029	 0.034481	 1.220604	-179.303200	 0.588195	 0.550449	-13.324500	-10.970450	-176.626800	-1.566913	-40.202750	-6.897796	-175.360600	 85.075940	 161.387900	-2.115283	 50.958240	-0.620978	 2.070768	-9.816323	 178.698700	 6.683088	-39.769620	 9.575656	-161.336200	 84.277240	 170.693100	 2.370818	 31.110520	 0.060029	-8.312325	 5.183899	 1.340333	-1.230711	 10.461180	-2.956897	 7.564552	-24.613340	 5.412004	-91.229150	 83.958270	 178.242500	 57.938850	 70.033560	-57.133210	 4.741598	-6.790187	-20.176090	 16.466690	-25.691720	-11.118780	-12.167560	 6.967586	-25.463940	-5.213937	-0.202400	 3.566957	-1.378229	 35.397820	-2.634230	-1.394922	 6.648276	 5.083341	-2.583584	-20.926760	-6.843451	 87.726970	 87.418960	-176.798900	-84.622700	 62.353740	 74.977340	-4.256598	-6.755678	 17.974210	-26.713680	-22.010640	 21.871340	-0.023958	 26.638750	-62.278510	 5.070519	-0.690904	-9.399550	-2.350882	 35.473990	 5.254307
 0.012069	 0.033981	 1.220860	-179.200400	 0.611928	 0.523755	-13.434400	-11.027630	-176.621400	-1.513656	-40.186040	-6.860394	-174.970100	 85.144620	 160.974000	-2.108599	 51.241320	-0.631705	 1.988404	-9.857574	 178.707900	 6.674271	-39.792870	 9.574371	-161.438400	 84.311390	 170.796900	 2.371613	 30.972960	 0.056937	-8.487895	 5.194394	 1.364191	-1.257414	 10.611350	-2.945768	 7.589581	-24.786490	 5.438549	-91.229230	 83.958310	 178.242600	 58.183090	 69.961490	-56.959810	 4.512049	-6.884373	-20.712830	 16.220400	-25.959590	-11.263880	-12.228940	 6.863922	-25.585610	-5.213937	-0.202400	 3.566957	-1.378229	 35.397820	-2.634230	-1.407243	 6.620844	 5.063299	-2.608299	-21.048110	-6.851480	 87.726660	 87.418960	-176.798600	-84.941070	 62.317380	 75.364070	-4.099213	-6.634149	 17.915100	-26.385250	-22.226250	 22.017350	-0.046041	 26.612250	-62.310960	 5.070519	-0.690904	-9.399550	-2.350882	 35.473990	 5.254307
